<svg xmlns="http://www.w3.org/2000/svg" xmlns:xlink="http://www.w3.org/1999/xlink" width="26" height="26"><defs><linearGradient id="b" x1="949.87" x2="974.39" y1="518.014" y2="544.657" gradientTransform="translate(-737.745 625.151) scale(.78112)" gradientUnits="userSpaceOnUse" xlink:href="#a"/><linearGradient id="a"><stop offset="0" stop-color="#24f7bc"/><stop offset="1" stop-color="#24c4fc"/></linearGradient></defs><g transform="translate(-1.03 -1096.225) scale(1.06642)"><rect width="24.381" height="24.381" x=".965" y="1027.95" fill="url(#b)" rx="5.152" ry="5.152"/><path fill="#fff" style="line-height:normal;text-indent:0;text-align:start;text-decoration-line:none;text-decoration-style:solid;text-decoration-color:#000;text-transform:none;block-progression:tb;isolation:auto;mix-blend-mode:normal;marker:none" d="M11.084 1032.648a.469.469 0 0 0-.454.355l-1.38 5.575c-.073.295.15.58.453.58h1.41l-1.83 3.79c-.15.31.076.67.42.672h1.447l-1.443 3.36c-.196.468.386.87.755.523l6.47-6.246a.469.469 0 0 0-.326-.806h-1.838l1.83-3.787a.469.469 0 0 0-.422-.674h-1.537l.78-2.747a.469.469 0 0 0-.452-.596z" color="#000" font-family="sans-serif" font-weight="400" overflow="visible"/></g></svg>