<svg xmlns="http://www.w3.org/2000/svg" data-name="Layer 1" viewBox="0 0 512 512"><g data-name="&lt;Group&gt;"><path fill="#00acea" d="M110.507,307H240.862L269.6,491.509a8,8,0,0,0,6.949,6.712,8.185,8.185,0,0,0,.96.057,8,8,0,0,0,7.383-4.929L408.88,195.071A8,8,0,0,0,401.493,184h-130.4L233.765,20.411a8,8,0,0,0-15.182-1.3L103.124,295.92A8,8,0,0,0,110.507,307ZM223.727,48.339,256.914,193.78a8,8,0,0,0,7.8,6.22H389.5L281.03,460.948,255.618,297.769A8,8,0,0,0,247.713,291h-125.2Z" data-name="&lt;Compound Path&gt;"/></g></svg>