<svg xmlns="http://www.w3.org/2000/svg" width="16" height="16"><path fill="#c2e4f8" d="M15.5 8.5a7 7 0 0 1-7 7 7 7 0 0 1-7-7 7 7 0 0 1 7-7 7 7 0 0 1 7 7z"/><path fill="#249fe6" style="line-height:normal;text-indent:0;text-align:start;text-decoration-line:none;text-decoration-style:solid;text-decoration-color:#000;text-transform:none;block-progression:tb;isolation:auto;mix-blend-mode:normal" d="M8.5 1037.361c-4.136 0-7.5 3.364-7.5 7.5s3.364 7.5 7.5 7.5 7.5-3.364 7.5-7.5-3.364-7.5-7.5-7.5zm0 1c3.596 0 6.5 2.905 6.5 6.5 0 3.596-2.904 6.5-6.5 6.5a6.492 6.492 0 0 1-6.5-6.5c0-3.595 2.904-6.5 6.5-6.5z" color="#000" font-family="sans-serif" font-weight="400" overflow="visible" transform="translate(0 -1036.362)"/><path fill="#fff" fill-rule="evenodd" d="M10.526 3.462 6.059 9.475l1.72.05-.863 3.975 4.025-6H9.466z"/><path fill="#249fe6" fill-rule="evenodd" style="line-height:normal;text-indent:0;text-align:start;text-decoration-line:none;text-decoration-style:solid;text-decoration-color:#000;text-transform:none;block-progression:tb;isolation:auto;mix-blend-mode:normal" d="M10.488 1039.324a.5.5 0 0 0-.363.201l-4.467 6.014a.5.5 0 0 0 .387.797l1.12.033-.737 3.387a.5.5 0 0 0 .904.384l4.023-6a.5.5 0 0 0-.414-.779h-.828l.897-3.41a.5.5 0 0 0-.522-.627zm-1.101 2.871-.405 1.54a.5.5 0 0 0 .483.626h.539l-2.043 3.045.307-1.412a.5.5 0 0 0-.473-.605l-.764-.024 2.356-3.17z" color="#000" font-family="sans-serif" font-weight="400" overflow="visible" transform="translate(0 -1036.362)"/></svg>